<svg width="226" height="53" viewBox="0 0 226 53" fill="none" xmlns="http://www.w3.org/2000/svg">
<path d="M225.986 16.8508L221.683 42.7752H215.809L208.72 29.1548H208.569L206.29 42.7752H199.252L203.556 16.8508H209.531L216.518 30.4206H216.721L218.948 16.8508H225.986Z" fill="#FF5F3F"/>
<path d="M198.072 30.2687C197.599 33.0873 196.662 35.4502 195.261 37.3574C193.861 39.2646 192.16 40.7035 190.16 41.6739C188.16 42.6444 186.021 43.1296 183.742 43.1296C181.312 43.1296 179.202 42.6022 177.413 41.5473C175.624 40.4925 174.32 38.9482 173.502 36.9144C172.683 34.8806 172.519 32.3953 173.008 29.4586C173.464 26.64 174.392 24.2686 175.793 22.3446C177.194 20.4205 178.903 18.9648 180.919 17.9774C182.936 16.9901 185.093 16.4964 187.388 16.4964C189.801 16.4964 191.899 17.0281 193.679 18.0914C195.468 19.1547 196.768 20.7116 197.578 22.7623C198.396 24.813 198.561 27.3151 198.072 30.2687ZM190.983 29.4586C191.219 27.9733 191.236 26.7244 191.034 25.7117C190.831 24.6906 190.405 23.9227 189.755 23.4079C189.105 22.8847 188.232 22.6231 187.135 22.6231C185.886 22.6231 184.78 22.9269 183.818 23.5345C182.856 24.1421 182.059 25.0155 181.426 26.1547C180.793 27.294 180.35 28.6653 180.097 30.2687C179.827 31.7709 179.801 33.0198 180.021 34.0156C180.249 35.0114 180.696 35.7582 181.363 36.2561C182.038 36.754 182.915 37.003 183.995 37.003C185.228 37.003 186.316 36.7076 187.261 36.1169C188.215 35.5262 189.004 34.6696 189.628 33.5472C190.261 32.4249 190.713 31.062 190.983 29.4586Z" fill="#FF5F3F"/>
<path d="M150.261 22.5218L151.223 16.8508H173.755L172.793 22.5218H164.995L161.653 42.7752H154.717L158.058 22.5218H150.261Z" fill="white"/>
<path d="M123.469 42.7752L127.773 16.8508H138.963C140.887 16.8508 142.512 17.201 143.837 17.9015C145.162 18.6019 146.115 19.6104 146.698 20.9268C147.28 22.2433 147.419 23.8214 147.115 25.6611C146.811 27.5176 146.141 29.0831 145.103 30.3573C144.073 31.6232 142.761 32.5852 141.166 33.2434C139.579 33.8932 137.799 34.2181 135.824 34.2181H129.14L130.052 28.7497H135.318C136.145 28.7497 136.87 28.6484 137.495 28.4459C138.119 28.2349 138.626 27.9058 139.014 27.4586C139.402 27.0029 139.655 26.4037 139.773 25.6611C139.892 24.9184 139.832 24.3151 139.596 23.8509C139.36 23.3783 138.967 23.0323 138.419 22.8129C137.87 22.5851 137.191 22.4712 136.381 22.4712H133.9L130.507 42.7752H123.469ZM140.634 30.8763L145.141 42.7752H137.495L133.14 30.8763H140.634Z" fill="white"/>
<path d="M122.289 30.2687C121.816 33.0873 120.88 35.4502 119.479 37.3574C118.078 39.2646 116.378 40.7035 114.378 41.6739C112.377 42.6444 110.238 43.1296 107.96 43.1296C105.529 43.1296 103.42 42.6022 101.631 41.5473C99.8414 40.4925 98.5376 38.9482 97.7191 36.9144C96.9005 34.8806 96.7359 32.3953 97.2254 29.4586C97.6811 26.64 98.6094 24.2686 100.01 22.3446C101.411 20.4205 103.12 18.9648 105.137 17.9774C107.154 16.9901 109.31 16.4964 111.605 16.4964C114.019 16.4964 116.116 17.0281 117.897 18.0914C119.686 19.1547 120.985 20.7116 121.795 22.7623C122.614 24.813 122.778 27.3151 122.289 30.2687ZM115.2 29.4586C115.437 27.9733 115.453 26.7244 115.251 25.7117C115.048 24.6906 114.622 23.9227 113.972 23.4079C113.323 22.8847 112.449 22.6231 111.352 22.6231C110.103 22.6231 108.998 22.9269 108.036 23.5345C107.074 24.1421 106.276 25.0155 105.643 26.1547C105.01 27.294 104.567 28.6653 104.314 30.2687C104.044 31.7709 104.019 33.0198 104.238 34.0156C104.466 35.0114 104.913 35.7582 105.58 36.2561C106.255 36.754 107.133 37.003 108.213 37.003C109.445 37.003 110.534 36.7076 111.479 36.1169C112.432 35.5262 113.221 34.6696 113.846 33.5472C114.479 32.4249 114.93 31.062 115.2 29.4586Z" fill="white"/>
<path d="M71.7061 42.7752L76.0099 16.8508H87.2C89.124 16.8508 90.7443 17.2306 92.0608 17.9901C93.3772 18.7496 94.3224 19.8171 94.8963 21.1927C95.4701 22.5682 95.6051 24.1758 95.3013 26.0155C94.9975 27.8889 94.3224 29.505 93.276 30.8637C92.238 32.2139 90.9131 33.2561 89.3012 33.9903C87.6978 34.716 85.9004 35.0789 83.9088 35.0789H77.2251L78.1365 29.6105H83.4024C84.2463 29.6105 84.989 29.467 85.6303 29.1801C86.2717 28.8847 86.7907 28.4712 87.1873 27.9396C87.5839 27.3995 87.8413 26.7581 87.9595 26.0155C88.0776 25.2729 88.0227 24.64 87.7949 24.1167C87.5755 23.5851 87.1957 23.18 86.6556 22.9015C86.124 22.6146 85.4447 22.4712 84.6176 22.4712H82.1366L78.7441 42.7752H71.7061Z" fill="white"/>
<path d="M64.8769 24.9522C64.9529 24.1167 64.7503 23.4627 64.2693 22.9902C63.7883 22.5091 62.9781 22.2686 61.8389 22.2686C61.1131 22.2686 60.5055 22.353 60.0161 22.5218C59.5351 22.6906 59.1595 22.9226 58.8895 23.218C58.6279 23.5134 58.4633 23.8551 58.3958 24.2433C58.3199 24.5471 58.3241 24.8256 58.4085 25.0788C58.5013 25.3235 58.6743 25.5471 58.9275 25.7497C59.1891 25.9522 59.5308 26.1337 59.9528 26.294C60.3832 26.4543 60.8937 26.5978 61.4845 26.7244L63.5098 27.1801C64.8938 27.4839 66.0541 27.8847 66.9909 28.3826C67.936 28.8721 68.6786 29.4544 69.2187 30.1295C69.7588 30.8046 70.1133 31.5599 70.282 32.3953C70.4593 33.2308 70.4635 34.1422 70.2947 35.1295C70.0078 36.8342 69.3453 38.2773 68.3073 39.4587C67.2693 40.6402 65.9149 41.5389 64.244 42.155C62.5731 42.771 60.6406 43.079 58.4464 43.079C56.2017 43.079 54.2945 42.7457 52.7249 42.079C51.1637 41.4039 50.0328 40.3743 49.3324 38.9904C48.6404 37.5979 48.4716 35.8215 48.8261 33.6612H55.5097C55.4084 34.4544 55.4928 35.1211 55.7629 35.6612C56.0329 36.2013 56.4675 36.6106 57.0667 36.8891C57.6658 37.1675 58.4127 37.3068 59.3072 37.3068C60.0667 37.3068 60.7165 37.214 61.2566 37.0283C61.7967 36.8426 62.2229 36.5853 62.5351 36.2561C62.8473 35.927 63.0372 35.5515 63.1047 35.1295C63.1722 34.7414 63.1047 34.3954 62.9022 34.0916C62.6997 33.7878 62.3326 33.5135 61.8009 33.2688C61.2693 33.024 60.5393 32.8004 59.611 32.5979L57.13 32.0409C54.9274 31.5346 53.2649 30.6991 52.1426 29.5345C51.0202 28.37 50.6236 26.775 50.9527 24.7497C51.2227 23.0956 51.9021 21.6526 52.9907 20.4205C54.0877 19.18 55.4802 18.2179 57.1679 17.5344C58.8642 16.8424 60.7418 16.4964 62.8009 16.4964C64.8938 16.4964 66.6449 16.8466 68.0542 17.547C69.4719 18.2475 70.4888 19.2306 71.1048 20.4965C71.7293 21.7623 71.8981 23.2475 71.6112 24.9522H64.8769Z" fill="white"/>
<path d="M13.1327 35.177L15.0089 53L3.75221 45.4956V39.8673L0 37.0531L2.34513 16.885L17.823 11.2567V37.0531L16.885 36.5841L16.4159 30.4867L6.56637 24.8584L6.09735 30.9558L13.1327 35.177Z" fill="white"/>
<path d="M22.5133 35.177L20.6371 53L31.8938 45.4956V39.8673L35.646 37.0531L33.3009 16.885L17.823 11.2567V37.0531L18.761 36.5841L19.2301 30.4867L29.0796 24.8584L29.5487 30.9558L22.5133 35.177Z" fill="white"/>
<path d="M17.823 10.3186L5.15924 15.0088L8.44243 10.3186L17.823 5.6283V10.3186Z" fill="#FF5F3F"/>
<path d="M17.823 10.3186L30.4867 15.0088L27.2035 10.3186L17.823 5.6283V10.3186Z" fill="#FF5F3F"/>
<path d="M17.823 4.69027L15.0089 6.09735L15.5068 3.75221L17.823 0V4.69027Z" fill="white"/>
<path d="M17.823 4.69027L20.6372 6.09735L20.1392 3.75221L17.823 0V4.69027Z" fill="white"/>
</svg>
